<svg width="19" height="20" viewBox="0 0 19 20" fill="none" xmlns="http://www.w3.org/2000/svg">
<path d="M12.1704 16.5C11.4901 16.5 10.9167 16.2651 10.45 15.7954C9.98333 15.3257 9.75 14.7507 9.75 14.0704C9.75 13.3901 9.98486 12.8167 10.4546 12.35C10.9243 11.8833 11.4993 11.65 12.1796 11.65C12.8599 11.65 13.4333 11.8849 13.9 12.3546C14.3667 12.8243 14.6 13.3993 14.6 14.0796C14.6 14.7599 14.3651 15.3333 13.8954 15.8C13.4257 16.2667 12.8507 16.5 12.1704 16.5ZM1.75 20C1.35 20 1 19.85 0.7 19.55C0.4 19.25 0.25 18.9 0.25 18.5V3C0.25 2.6 0.4 2.25 0.7 1.95C1 1.65 1.35 1.5 1.75 1.5H3.375V0H5V1.5H13.5V0H15.125V1.5H16.75C17.15 1.5 17.5 1.65 17.8 1.95C18.1 2.25 18.25 2.6 18.25 3V18.5C18.25 18.9 18.1 19.25 17.8 19.55C17.5 19.85 17.15 20 16.75 20H1.75ZM1.75 18.5H16.75V7.75H1.75V18.5Z" fill="#CDCDCD"/>
</svg>
