<svg width="17" height="24" viewBox="0 0 17 24" fill="none" xmlns="http://www.w3.org/2000/svg">
<path d="M16.0245 10.2969L5.99897 23.7969C5.95219 23.8599 5.89119 23.911 5.82088 23.9463C5.75057 23.9816 5.67291 24 5.59415 24C5.52784 24.0002 5.46217 23.9871 5.40108 23.9614C5.29712 23.9186 5.21064 23.8424 5.15549 23.7449C5.10035 23.6474 5.07974 23.5343 5.09697 23.4238L6.48091 14.5H0.527611C0.43452 14.5 0.343255 14.4743 0.263971 14.4258C0.184687 14.3773 0.120493 14.3079 0.0785347 14.2253C0.0365762 14.1428 0.018498 14.0502 0.0263116 13.958C0.0341252 13.8658 0.0675244 13.7776 0.122792 13.7031L10.1483 0.203132C10.2151 0.113161 10.3103 0.0480384 10.4187 0.0181699C10.5271 -0.0116986 10.6425 -0.00458897 10.7463 0.0383627C10.8502 0.0813145 10.9366 0.157629 10.9917 0.255113C11.0468 0.352597 11.0674 0.465623 11.0503 0.576132L9.66633 9.49998H15.6196C15.7127 9.49998 15.804 9.52564 15.8833 9.57413C15.9626 9.62262 16.0268 9.69203 16.0688 9.77463C16.1107 9.85723 16.1288 9.94978 16.121 10.042C16.1131 10.1342 16.0797 10.2224 16.0245 10.2969Z" fill="#FFC93E"/>
</svg>
