<svg width="15" height="12" viewBox="0 0 15 12" fill="none" xmlns="http://www.w3.org/2000/svg">
<path d="M4.80486 11.6875C10.0866 11.6875 12.9763 7.31061 12.9763 3.51612C12.9763 3.39307 12.9735 3.26729 12.9681 3.14424C13.5302 2.73772 14.0153 2.23418 14.4006 1.65729C13.8771 1.89021 13.3212 2.04234 12.752 2.10846C13.3514 1.74923 13.8001 1.18489 14.0151 0.520061C13.4513 0.854189 12.8347 1.08989 12.1918 1.21705C11.7586 0.756774 11.1858 0.452015 10.5621 0.349894C9.93833 0.247772 9.2983 0.353977 8.74095 0.652087C8.18361 0.950197 7.73999 1.42361 7.47868 1.99913C7.21738 2.57465 7.15294 3.22022 7.29533 3.83604C6.15372 3.77875 5.0369 3.48219 4.01726 2.96559C2.99762 2.44898 2.09793 1.72387 1.3765 0.837249C1.00984 1.46942 0.897637 2.21749 1.06271 2.92942C1.22777 3.64134 1.65772 4.26371 2.26517 4.67002C1.80914 4.65554 1.36309 4.53276 0.963885 4.31182V4.34737C0.963477 5.01078 1.19283 5.65387 1.61295 6.16731C2.03308 6.68075 2.61804 7.03286 3.26842 7.16377C2.84597 7.27936 2.40259 7.2962 1.9726 7.21299C2.15612 7.78353 2.51319 8.28255 2.99397 8.64039C3.47475 8.99823 4.05526 9.19705 4.65447 9.20908C3.63718 10.0082 2.38054 10.4416 1.08693 10.4396C0.857522 10.4392 0.628337 10.4251 0.400604 10.3974C1.71477 11.2406 3.2435 11.6883 4.80486 11.6875Z" fill="#CDCDCD"/>
</svg>
